<svg width="30" height="30" viewBox="0 0 30 30" fill="none" xmlns="http://www.w3.org/2000/svg">
<path d="M20.8594 4.21875C18.5051 4.21875 16.4156 5.14805 15 6.74531C13.5844 5.14805 11.4949 4.21875 9.14062 4.21875C7.0901 4.22123 5.12428 5.0369 3.67434 6.48684C2.2244 7.93678 1.40873 9.9026 1.40625 11.9531C1.40625 20.4305 13.8059 27.2039 14.3332 27.4887C14.5381 27.599 14.7672 27.6568 15 27.6568C15.2328 27.6568 15.4619 27.599 15.6668 27.4887C16.1941 27.2039 28.5938 20.4305 28.5938 11.9531C28.5913 9.9026 27.7756 7.93678 26.3257 6.48684C24.8757 5.0369 22.9099 4.22123 20.8594 4.21875ZM20.216 20.9016C18.5839 22.2865 16.8392 23.533 15 24.6281C13.1608 23.533 11.4161 22.2865 9.78398 20.9016C7.24453 18.723 4.21875 15.4008 4.21875 11.9531C4.21875 10.6478 4.7373 9.39586 5.66033 8.47283C6.58336 7.5498 7.83526 7.03125 9.14062 7.03125C11.2266 7.03125 12.9727 8.13281 13.698 9.90703C13.8036 10.1657 13.9838 10.387 14.2157 10.5428C14.4476 10.6986 14.7206 10.7818 15 10.7818C15.2794 10.7818 15.5524 10.6986 15.7843 10.5428C16.0162 10.387 16.1964 10.1657 16.302 9.90703C17.0273 8.13281 18.7734 7.03125 20.8594 7.03125C22.1647 7.03125 23.4166 7.5498 24.3397 8.47283C25.2627 9.39586 25.7812 10.6478 25.7812 11.9531C25.7812 15.4008 22.7555 18.723 20.216 20.9016Z" fill="#A34D41"/>
</svg>
