<svg width="31" height="26" viewBox="0 0 31 26" fill="none" xmlns="http://www.w3.org/2000/svg">
<path d="M14.7789 23.7211L2.51929 11.774L2.80775 4.923L5.06736 2.01435H11.7501L14.3702 5.76435H16.3174L18.6491 3.048L24.4183 1.24512L28.9856 5.18742V11.0768L16.6058 23.7211H14.7789Z" fill="#DD775A"/>
<rect x="0.5" y="3.74512" width="3.22115" height="9.13461" fill="#A34D41"/>
<rect x="3.72119" y="12.8799" width="3.22115" height="3.17308" fill="#A34D41"/>
<rect x="24.0576" y="12.8799" width="3.22115" height="3.17308" fill="#A34D41"/>
<rect x="6.94238" y="16.0527" width="3.22115" height="3.17308" fill="#A34D41"/>
<rect x="10.1633" y="19.2258" width="3.22115" height="3.17308" fill="#A34D41"/>
<rect x="13.3845" y="22.3989" width="4.23077" height="3.17308" fill="#A34D41"/>
<rect x="17.6155" y="19.2258" width="3.22115" height="3.17308" fill="#A34D41"/>
<rect x="20.8367" y="16.0527" width="3.22115" height="3.17308" fill="#A34D41"/>
<rect x="27.2788" y="3.74512" width="3.22115" height="9.13461" fill="#A34D41"/>
<rect x="3.72119" y="0.427734" width="9.27885" height="3.31731" fill="#A34D41"/>
<rect x="12.9519" y="3.74512" width="5.04808" height="3.31731" fill="#A34D41"/>
<rect x="18" y="0.427734" width="9.27885" height="3.31731" fill="#A34D41"/>
</svg>
