<svg width="24" height="24" viewBox="0 0 24 24" fill="none" xmlns="http://www.w3.org/2000/svg">
<path d="M22.5458 9.70495L15.0458 2.20495C14.8885 2.04749 14.6881 1.94022 14.4698 1.89671C14.2516 1.8532 14.0253 1.8754 13.8197 1.96051C13.614 2.04561 13.4383 2.1898 13.3146 2.37482C13.1909 2.55985 13.1249 2.7774 13.1249 2.99995V6.44432C10.7099 6.73682 8.09426 7.93401 5.92957 9.76963C3.19582 12.089 1.49332 15.0843 1.1352 18.2071C1.09892 18.5205 1.16236 18.8373 1.31651 19.1126C1.47066 19.3878 1.70766 19.6075 1.99381 19.7403C2.27997 19.8731 2.6007 19.9123 2.91042 19.8523C3.22013 19.7923 3.50305 19.6362 3.71895 19.4062C4.69957 18.3618 8.1252 15.1181 13.1249 14.6793V17.9999C13.1251 18.2223 13.1912 18.4396 13.3148 18.6244C13.4384 18.8093 13.6141 18.9533 13.8195 19.0384C14.0249 19.1234 14.251 19.1457 14.4691 19.1024C14.6872 19.0591 14.8876 18.9521 15.0449 18.7949L22.5449 11.2949C22.7557 11.0841 22.8742 10.7983 22.8744 10.5001C22.8745 10.202 22.7564 9.91601 22.5458 9.70495ZM15.3749 15.2812V13.4999C15.3749 13.2016 15.2564 12.9154 15.0454 12.7045C14.8344 12.4935 14.5483 12.3749 14.2499 12.3749C9.65614 12.3749 6.13395 14.3962 3.95707 16.1353C4.62551 14.4328 5.79739 12.8334 7.38551 11.4862C9.49676 9.69463 12.0627 8.62495 14.2499 8.62495C14.5483 8.62495 14.8344 8.50642 15.0454 8.29544C15.2564 8.08446 15.3749 7.79832 15.3749 7.49995V5.7187L20.1561 10.4999L15.3749 15.2812Z" fill="#384B49"/>
</svg>
